<svg width="69" height="69" viewBox="0 0 69 69" fill="none" xmlns="http://www.w3.org/2000/svg">
<path d="M56.0625 23.7188H12.9375C11.7938 23.7188 10.6969 24.1731 9.8881 24.9819C9.07935 25.7906 8.625 26.8875 8.625 28.0312V53.9062C8.625 55.05 9.07935 56.1469 9.8881 56.9556C10.6969 57.7644 11.7938 58.2188 12.9375 58.2188H56.0625C57.2062 58.2188 58.3031 57.7644 59.1119 56.9556C59.9206 56.1469 60.375 55.05 60.375 53.9062V28.0312C60.375 26.8875 59.9206 25.7906 59.1119 24.9819C58.3031 24.1731 57.2062 23.7188 56.0625 23.7188ZM56.0625 53.9062H12.9375V28.0312H56.0625V53.9062ZM12.9375 17.25C12.9375 16.6781 13.1647 16.1297 13.5691 15.7253C13.9734 15.3209 14.5219 15.0938 15.0938 15.0938H53.9062C54.4781 15.0938 55.0266 15.3209 55.431 15.7253C55.8353 16.1297 56.0625 16.6781 56.0625 17.25C56.0625 17.8219 55.8353 18.3703 55.431 18.7747C55.0266 19.1791 54.4781 19.4062 53.9062 19.4062H15.0938C14.5219 19.4062 13.9734 19.1791 13.5691 18.7747C13.1647 18.3703 12.9375 17.8219 12.9375 17.25ZM17.25 8.625C17.25 8.05313 17.4772 7.50468 17.8816 7.1003C18.2859 6.69593 18.8344 6.46875 19.4062 6.46875H49.5938C50.1656 6.46875 50.7141 6.69593 51.1185 7.1003C51.5228 7.50468 51.75 8.05313 51.75 8.625C51.75 9.19687 51.5228 9.74532 51.1185 10.1497C50.7141 10.5541 50.1656 10.7812 49.5938 10.7812H19.4062C18.8344 10.7812 18.2859 10.5541 17.8816 10.1497C17.4772 9.74532 17.25 9.19687 17.25 8.625Z" fill="black"/>
</svg>
