<svg width="69" height="69" viewBox="0 0 69 69" fill="none" xmlns="http://www.w3.org/2000/svg">
<path d="M62.5312 12.9375H43.125C41.4513 12.9375 39.8005 13.3272 38.3035 14.0757C36.8064 14.8242 35.5042 15.911 34.5 17.25C33.4958 15.911 32.1936 14.8242 30.6965 14.0757C29.1995 13.3272 27.5487 12.9375 25.875 12.9375H6.46875C5.89688 12.9375 5.34843 13.1647 4.94405 13.5691C4.53968 13.9734 4.3125 14.5219 4.3125 15.0938V53.9062C4.3125 54.4781 4.53968 55.0266 4.94405 55.431C5.34843 55.8353 5.89688 56.0625 6.46875 56.0625H25.875C27.5906 56.0625 29.236 56.744 30.4491 57.9572C31.6622 59.1703 32.3438 60.8156 32.3438 62.5312C32.3438 63.1031 32.5709 63.6516 32.9753 64.056C33.3797 64.4603 33.9281 64.6875 34.5 64.6875C35.0719 64.6875 35.6203 64.4603 36.0247 64.056C36.4291 63.6516 36.6562 63.1031 36.6562 62.5312C36.6562 60.8156 37.3378 59.1703 38.5509 57.9572C39.764 56.744 41.4094 56.0625 43.125 56.0625H62.5312C63.1031 56.0625 63.6516 55.8353 64.056 55.431C64.4603 55.0266 64.6875 54.4781 64.6875 53.9062V15.0938C64.6875 14.5219 64.4603 13.9734 64.056 13.5691C63.6516 13.1647 63.1031 12.9375 62.5312 12.9375ZM25.875 51.75H8.625V17.25H25.875C27.5906 17.25 29.236 17.9315 30.4491 19.1447C31.6622 20.3578 32.3438 22.0031 32.3438 23.7188V53.9062C30.4793 52.5033 28.2083 51.7463 25.875 51.75ZM60.375 51.75H43.125C40.7917 51.7463 38.5207 52.5033 36.6562 53.9062V23.7188C36.6562 22.0031 37.3378 20.3578 38.5509 19.1447C39.764 17.9315 41.4094 17.25 43.125 17.25H60.375V51.75ZM43.125 23.7188H53.9062C54.4781 23.7188 55.0266 23.9459 55.431 24.3503C55.8353 24.7547 56.0625 25.3031 56.0625 25.875C56.0625 26.4469 55.8353 26.9953 55.431 27.3997C55.0266 27.8041 54.4781 28.0312 53.9062 28.0312H43.125C42.5531 28.0312 42.0047 27.8041 41.6003 27.3997C41.1959 26.9953 40.9688 26.4469 40.9688 25.875C40.9688 25.3031 41.1959 24.7547 41.6003 24.3503C42.0047 23.9459 42.5531 23.7188 43.125 23.7188ZM56.0625 34.5C56.0625 35.0719 55.8353 35.6203 55.431 36.0247C55.0266 36.4291 54.4781 36.6562 53.9062 36.6562H43.125C42.5531 36.6562 42.0047 36.4291 41.6003 36.0247C41.1959 35.6203 40.9688 35.0719 40.9688 34.5C40.9688 33.9281 41.1959 33.3797 41.6003 32.9753C42.0047 32.5709 42.5531 32.3438 43.125 32.3438H53.9062C54.4781 32.3438 55.0266 32.5709 55.431 32.9753C55.8353 33.3797 56.0625 33.9281 56.0625 34.5ZM56.0625 43.125C56.0625 43.6969 55.8353 44.2453 55.431 44.6497C55.0266 45.0541 54.4781 45.2812 53.9062 45.2812H43.125C42.5531 45.2812 42.0047 45.0541 41.6003 44.6497C41.1959 44.2453 40.9688 43.6969 40.9688 43.125C40.9688 42.5531 41.1959 42.0047 41.6003 41.6003C42.0047 41.1959 42.5531 40.9688 43.125 40.9688H53.9062C54.4781 40.9688 55.0266 41.1959 55.431 41.6003C55.8353 42.0047 56.0625 42.5531 56.0625 43.125Z" fill="black"/>
</svg>
