<svg width="44" height="44" viewBox="0 0 44 44" fill="none" xmlns="http://www.w3.org/2000/svg">
<path d="M35.75 4.125H12.375C10.9163 4.125 9.51736 4.70446 8.48591 5.73591C7.45446 6.76736 6.875 8.16631 6.875 9.625V38.5C6.875 38.8647 7.01987 39.2144 7.27773 39.4723C7.53559 39.7301 7.88533 39.875 8.25 39.875H33C33.3647 39.875 33.7144 39.7301 33.9723 39.4723C34.2301 39.2144 34.375 38.8647 34.375 38.5C34.375 38.1353 34.2301 37.7856 33.9723 37.5277C33.7144 37.2699 33.3647 37.125 33 37.125H9.625C9.625 36.3957 9.91473 35.6962 10.4305 35.1805C10.9462 34.6647 11.6457 34.375 12.375 34.375H35.75C36.1147 34.375 36.4644 34.2301 36.7223 33.9723C36.9801 33.7144 37.125 33.3647 37.125 33V5.5C37.125 5.13533 36.9801 4.78559 36.7223 4.52773C36.4644 4.26987 36.1147 4.125 35.75 4.125ZM20.625 6.875H28.875V19.25L25.5733 16.775C25.3353 16.5965 25.0458 16.5 24.7483 16.5C24.4508 16.5 24.1613 16.5965 23.9233 16.775L20.625 19.25V6.875ZM34.375 31.625H12.375C11.4093 31.6237 10.4605 31.8781 9.625 32.3623V9.625C9.625 8.89565 9.91473 8.19618 10.4305 7.68046C10.9462 7.16473 11.6457 6.875 12.375 6.875H17.875V22C17.875 22.2554 17.9461 22.5057 18.0804 22.7229C18.2146 22.9401 18.4067 23.1156 18.6351 23.2298C18.8635 23.344 19.1192 23.3924 19.3735 23.3694C19.6278 23.3465 19.8707 23.2532 20.075 23.1L24.75 19.5938L29.4267 23.1C29.6643 23.2782 29.9531 23.3746 30.25 23.375C30.6147 23.375 30.9644 23.2301 31.2223 22.9723C31.4801 22.7144 31.625 22.3647 31.625 22V6.875H34.375V31.625Z" fill="#434343"/>
</svg>
